<svg xmlns="http://www.w3.org/2000/svg" width="45" height="45"><path fill-rule="evenodd" fill="#EE3967" d="M31.615 27.503l-.031-.006a.879.879 0 0 1 .347-1.723l.031.006a.879.879 0 0 1-.347 1.723zm-16.803 1.428a.879.879 0 1 1 .343 1.723.879.879 0 0 1-.343-1.723zM38.11 42.239C33.922 44.019 28.374 45 22.487 45c-5.887 0-11.436-.981-15.623-2.761C2.438 40.358 0 37.764 0 34.935c0-2.427 1.759-4.658 5.088-6.454 2.749-1.483 6.5-2.586 10.662-3.157l-3.264-4.184a.717.717 0 0 1-.045-.063 12.955 12.955 0 0 1-2.888-8.148C9.553 5.8 15.35 0 22.476 0c7.125 0 12.923 5.8 12.922 12.929 0 2.956-1.022 5.843-2.879 8.136l-.009.012-5.662 7.261c4.418.543 8.979 2.039 8.979 4.771 0 3.303-6.711 5.031-13.34 5.031-6.63 0-13.341-1.728-13.341-5.031 0-.834.459-2.053 2.646-3.123a.88.88 0 0 1 .772 1.579c-1.04.508-1.661 1.086-1.661 1.544 0 .501.799 1.352 3.049 2.102 2.267.756 5.298 1.172 8.535 1.172s6.268-.416 8.534-1.172c2.251-.75 3.049-1.601 3.049-2.102 0-1.02-2.961-2.651-8.499-3.134l-2.403 3.081a.876.876 0 0 1-1.385.001l-4.776-6.122c-4.366.495-8.297 1.589-11.085 3.093-2.686 1.449-4.165 3.191-4.165 4.907 0 2.049 2.112 4.121 5.794 5.687 3.975 1.69 9.279 2.62 14.936 2.62 5.656 0 10.96-.93 14.936-2.62 3.682-1.566 5.794-3.638 5.794-5.687 0-2.423-2.911-4.827-7.785-6.432a.88.88 0 0 1 .549-1.67c5.715 1.882 8.992 4.835 8.992 8.102 0 2.829-2.437 5.423-6.863 7.304zM22.475 31.088l8.629-11.065.031-.042a11.191 11.191 0 0 0 2.507-7.052c0-6.16-5.009-11.172-11.166-11.172S11.309 6.769 11.309 12.929c0 2.591.907 5.117 2.554 7.111.026.031.05.065.071.1l8.541 10.948zm2.251-25.55a.88.88 0 0 1-.499 1.685 6.148 6.148 0 0 0-6.099 1.549 6.107 6.107 0 0 0-1.801 4.349 6.11 6.11 0 0 0 1.801 4.35 6.106 6.106 0 0 0 4.348 1.802c1.642 0 3.186-.64 4.347-1.802a6.154 6.154 0 0 0 1.549-6.096.88.88 0 0 1 1.685-.498 7.912 7.912 0 0 1-1.991 7.837 7.854 7.854 0 0 1-5.59 2.317 7.85 7.85 0 0 1-5.59-2.317 7.86 7.86 0 0 1-2.316-5.593 7.86 7.86 0 0 1 2.316-5.592 7.9 7.9 0 0 1 7.84-1.991zm2.734 3.506a.872.872 0 0 1-.621-.257l-.016-.016a.88.88 0 0 1 1.243-1.243l.015.016a.88.88 0 0 1-.621 1.5z"/></svg>