<svg xmlns="http://www.w3.org/2000/svg" width="44" height="39"><path fill-rule="evenodd" fill="#EE3967" d="M43.16 38.407H1.711a.832.832 0 0 1-.842-.822V14.78c0-.372.253-.686.599-.787l6.604-4.688V1.577c0-.454.377-.822.842-.822h18.785c.224 0 .438.087.596.241l8.258 8.057c.052.051.097.11.134.172l6.716 4.768a.823.823 0 0 1 .599.787v22.805a.832.832 0 0 1-.842.822zm-2.59-1.644L22.436 23.889 4.301 36.763H40.57zM8.072 11.338l-4.889 3.471 4.889 3.47v-6.941zm-5.518 5.057v19.576l13.787-9.788-13.787-9.788zM28.542 3.562v5.25h5.381l-5.381-5.25zm6.573 6.894h-7.416a.832.832 0 0 1-.842-.822V2.4h-17.1v17.075l8.016 5.691 4.167-2.958a.858.858 0 0 1 .991 0l4.167 2.958 8.017-5.691v-9.019zm1.684.882v6.941l4.889-3.47-4.889-3.471zm5.518 5.057L28.53 26.183l13.787 9.788V16.395zm-13.843 1.789h4.097c.465 0 .842.368.842.822a.832.832 0 0 1-.842.822h-4.097a.832.832 0 0 1-.842-.822c0-.454.377-.822.842-.822zm4.102-2.467H12.531a.832.832 0 0 1-.843-.822c0-.454.377-.822.843-.822h20.045c.465 0 .842.368.842.822a.832.832 0 0 1-.842.822zm-10.023-4.11H12.531a.832.832 0 0 1-.843-.822c0-.454.377-.822.843-.822h10.022c.465 0 .843.368.843.822a.833.833 0 0 1-.843.822zm0-4.11h-.011a.833.833 0 0 1-.842-.823c0-.454.377-.822.842-.822h.011c.465 0 .843.368.843.822a.834.834 0 0 1-.843.823zm-2.754 0h-7.268a.833.833 0 0 1-.843-.823c0-.454.377-.822.843-.822h7.268c.465 0 .842.368.842.822a.833.833 0 0 1-.842.823zm-7.273 10.687h10.5c.465 0 .842.368.842.822a.832.832 0 0 1-.842.822h-10.5a.832.832 0 0 1-.843-.822c0-.454.377-.822.843-.822zm13.194 0h.011c.465 0 .842.368.842.822a.832.832 0 0 1-.842.822h-.011a.832.832 0 0 1-.842-.822c0-.454.377-.822.842-.822z"/></svg>