<svg xmlns="http://www.w3.org/2000/svg" width="46" height="44"><path fill-rule="evenodd" fill="#EE3967" d="M44.613 37.41l-2.279 3.703a5.406 5.406 0 0 1-3.229 2.432c-1.134.3-2.304.452-3.478.452h-.059c-6.618 0-14.278-4.208-22.766-12.506l-2.088-2.126a.829.829 0 0 1-.233-.605.826.826 0 0 1 .28-.585.908.908 0 0 1 1.208.045l2.049 2.086c8.158 7.975 15.399 12.02 21.522 12.019a12.01 12.01 0 0 0 3.113-.396 3.714 3.714 0 0 0 2.214-1.674l2.274-3.706a.99.99 0 0 0-.312-1.357l-9.062-5.909a1.047 1.047 0 0 0-.571-.168c-.321 0-.618.141-.816.388l-2.639 3.316a2.725 2.725 0 0 1-2.164 1.045c-.464 0-.924-.118-1.331-.34l-.489-.264c-1.755-.935-3.938-2.099-8.277-6.341-4.339-4.241-5.529-6.376-6.486-8.091l-.27-.48a2.636 2.636 0 0 1 .722-3.416l3.392-2.58c.421-.323.52-.919.224-1.356L9.019 2.137a1.033 1.033 0 0 0-.859-.45c-.186 0-.369.05-.53.144L3.841 4.054a3.666 3.666 0 0 0-1.718 2.168 11.964 11.964 0 0 0-.314 4.462c.193 1.522.579 3.02 1.149 4.45a33.729 33.729 0 0 0 4.749 8.133c.14.195.289.385.445.571a.82.82 0 0 1-.142 1.169.904.904 0 0 1-1.216-.144 9.2 9.2 0 0 1-.46-.595 35.34 35.34 0 0 1-4.981-8.539 19.843 19.843 0 0 1-1.25-4.864c-.2-1.712-.077-3.424.366-5.09a5.334 5.334 0 0 1 2.489-3.16L6.747.39A2.788 2.788 0 0 1 8.159.006c.921 0 1.777.448 2.286 1.198l6.044 8.86a2.67 2.67 0 0 1-.6 3.609l-3.393 2.581a.986.986 0 0 0-.269 1.279l.276.493c.905 1.62 2.032 3.637 6.193 7.707 4.165 4.073 6.227 5.171 7.884 6.054l.503.271a1.058 1.058 0 0 0 1.303-.268l2.641-3.319a2.765 2.765 0 0 1 2.173-1.034 2.79 2.79 0 0 1 1.519.448l9.063 5.908c1.225.796 1.59 2.385.831 3.617zM25.491 14.599c2.939.003 5.332 2.343 5.335 5.216a.85.85 0 0 1-.858.839.85.85 0 0 1-.858-.839c-.003-1.948-1.626-3.535-3.619-3.538a.85.85 0 0 1-.858-.839.85.85 0 0 1 .858-.839zm0-4.377c5.404.006 9.805 4.31 9.812 9.593a.85.85 0 0 1-.858.839.85.85 0 0 1-.858-.839c-.006-4.359-3.637-7.91-8.096-7.915a.85.85 0 0 1-.858-.839.85.85 0 0 1 .858-.839zm13.43 10.432a.85.85 0 0 1-.857-.839c-.008-6.77-5.648-12.284-12.573-12.292a.85.85 0 0 1-.858-.839.85.85 0 0 1 .858-.838c7.87.008 14.28 6.275 14.289 13.969a.85.85 0 0 1-.859.839zM9.095 25.822a.891.891 0 0 1 .325-.039.854.854 0 0 1 .802.885.864.864 0 0 1-.294.575 1.285 1.285 0 0 1-.139.096.564.564 0 0 1-.162.066.596.596 0 0 1-.164.04l-.159.006h-.008a.925.925 0 0 1-.59-.29.858.858 0 0 1-.216-.608.883.883 0 0 1 .31-.577.868.868 0 0 1 .295-.154z"/></svg>