<svg xmlns="http://www.w3.org/2000/svg" width="43" height="43"><path fill-rule="evenodd" fill="#EE3967" d="M42.855 39.86a.756.756 0 0 1-.588.279h-6.396v2.101a.76.76 0 0 1-.76.76H.76a.76.76 0 0 1-.76-.76V5.051a.76.76 0 0 1 .76-.76h3.567C4.526 1.762 5.704 0 7.201 0s2.675 1.762 2.874 4.291h1.408C11.682 1.762 12.86 0 14.357 0s2.675 1.762 2.874 4.291h1.409C18.838 1.762 20.017 0 21.514 0c1.496 0 2.675 1.762 2.874 4.291h1.408C25.995 1.762 27.173 0 28.67 0s2.675 1.762 2.874 4.291h3.567a.84.84 0 0 1 .103.022.74.74 0 0 1 .144.03.756.756 0 0 1 .121.059.604.604 0 0 1 .211.175.697.697 0 0 1 .136.25.229.229 0 0 0 .01.023.178.178 0 0 1 .019.048l7.156 34.329a.757.757 0 0 1-.156.633zM7.201 1.52c-.446 0-1.176.986-1.345 2.771h2.693C8.377 2.506 7.646 1.52 7.201 1.52zm7.156 0c-.445 0-1.176.986-1.345 2.771h2.693c-.172-1.785-.903-2.771-1.348-2.771zm7.157 0c-.446 0-1.176.986-1.346 2.771h2.693c-.172-1.785-.902-2.771-1.347-2.771zm7.156 0c-.446 0-1.176.986-1.345 2.771h2.693c-.172-1.785-.903-2.771-1.348-2.771zm5.68 4.291h-7.028c.172 1.785.903 2.771 1.348 2.771a.76.76 0 0 1 0 1.52c-1.494 0-2.673-1.763-2.874-4.291h-5.63c.172 1.785.903 2.771 1.348 2.771a.76.76 0 0 1 0 1.52c-1.495 0-2.673-1.763-2.874-4.291h-5.631c.173 1.785.903 2.771 1.348 2.771a.761.761 0 0 1 0 1.52c-1.494 0-2.672-1.763-2.874-4.291h-5.63c.172 1.785.903 2.771 1.348 2.771a.76.76 0 0 1 0 1.52c-1.497 0-2.675-1.763-2.874-4.291H1.521v7.062H34.35V5.811zm0 8.582H1.521V41.48H34.35V14.393zm1.521-1.971v26.197h5.461l-5.461-26.197zM5.77 18.595h2.862a.76.76 0 0 1 .761.759v2.861c0 .419-.342.76-.761.76H5.77a.761.761 0 0 1-.761-.76v-2.861a.76.76 0 0 1 .761-.759zm.76 2.86h1.342v-1.341H6.53v1.341zm-.76 4.291h2.862c.419 0 .761.341.761.76v2.861c0 .419-.342.76-.761.76H5.77a.761.761 0 0 1-.761-.76v-2.861c0-.419.341-.76.761-.76zm.76 2.861h1.342v-1.341H6.53v1.341zm-.76 4.291h2.862c.419 0 .761.341.761.76v2.861c0 .419-.342.76-.761.76H5.77a.761.761 0 0 1-.761-.76v-2.861c0-.419.341-.76.761-.76zm.76 2.861h1.342v-1.341H6.53v1.341zm6.396-17.164h2.863c.419 0 .76.34.76.759v2.861a.76.76 0 0 1-.76.76h-2.863a.76.76 0 0 1-.76-.76v-2.861a.76.76 0 0 1 .76-.759zm.76 2.86h1.342v-1.341h-1.342v1.341zm-.76 4.291h2.863a.76.76 0 0 1 .76.76v2.861a.76.76 0 0 1-.76.76h-2.863a.76.76 0 0 1-.76-.76v-2.861a.76.76 0 0 1 .76-.76zm.76 2.861h1.342v-1.341h-1.342v1.341zm-.76 4.291h2.863a.76.76 0 0 1 .76.76v2.861a.76.76 0 0 1-.76.76h-2.863a.76.76 0 0 1-.76-.76v-2.861a.76.76 0 0 1 .76-.76zm.76 2.861h1.342v-1.341h-1.342v1.341zm6.396-17.164h2.863c.419 0 .76.34.76.759v2.861a.76.76 0 0 1-.76.76h-2.863a.76.76 0 0 1-.76-.76v-2.861a.76.76 0 0 1 .76-.759zm.761 2.86h1.342v-1.341h-1.342v1.341zm-.761 4.291h2.863a.76.76 0 0 1 .76.76v2.861a.76.76 0 0 1-.76.76h-2.863a.76.76 0 0 1-.76-.76v-2.861a.76.76 0 0 1 .76-.76zm.761 2.861h1.342v-1.341h-1.342v1.341zm-.761 4.291h2.863a.76.76 0 0 1 .76.76v2.861a.76.76 0 0 1-.76.76h-2.863a.76.76 0 0 1-.76-.76v-2.861a.76.76 0 0 1 .76-.76zm.761 2.861h1.342v-1.341h-1.342v1.341zm6.396-17.164h2.862a.76.76 0 0 1 .761.759v2.861c0 .419-.342.76-.761.76h-2.862a.761.761 0 0 1-.761-.76v-2.861a.76.76 0 0 1 .761-.759zm.76 2.86h1.342v-1.341h-1.342v1.341zm-.76 4.291h2.862c.419 0 .761.341.761.76v2.861c0 .419-.342.76-.761.76h-2.862a.761.761 0 0 1-.761-.76v-2.861c0-.419.341-.76.761-.76zm.76 2.861h1.342v-1.341h-1.342v1.341zm-.76 4.291h2.862c.419 0 .761.341.761.76v2.861c0 .419-.342.76-.761.76h-2.862a.761.761 0 0 1-.761-.76v-2.861c0-.419.341-.76.761-.76zm.76 2.861h1.342v-1.341h-1.342v1.341z"/></svg>